<mxfile host="app.diagrams.net" modified="2021-10-08T06:23:17.108Z" agent="5.0 (Windows NT 10.0; Win64; x64) AppleWebKit/537.36 (KHTML, like Gecko) Chrome/94.0.4606.71 Safari/537.36" etag="7aBHkrqTg326d-lm0035" version="15.4.3" type="github">
  <diagram id="y5n5SPzCg7jxDURjCboP" name="Page-1">
    <mxGraphModel dx="593" dy="313" grid="1" gridSize="10" guides="1" tooltips="1" connect="1" arrows="1" fold="1" page="1" pageScale="1" pageWidth="850" pageHeight="1100" math="0" shadow="0">
      <root>
        <mxCell id="0" />
        <mxCell id="1" parent="0" />
        <mxCell id="M7Nvs6vjRSlFN7uA4aVM-19" value="DB communication Error&amp;nbsp;" style="shape=umlFrame;whiteSpace=wrap;html=1;fontSize=8;fillColor=#ffe6cc;strokeColor=#d79b00;" vertex="1" parent="1">
          <mxGeometry x="120" y="130" width="260" height="150" as="geometry" />
        </mxCell>
        <mxCell id="M7Nvs6vjRSlFN7uA4aVM-1" value="Loan IQ Database" style="shape=umlLifeline;perimeter=lifelinePerimeter;whiteSpace=wrap;html=1;container=1;collapsible=0;recursiveResize=0;outlineConnect=0;" vertex="1" parent="1">
          <mxGeometry x="140" y="80" width="100" height="300" as="geometry" />
        </mxCell>
        <mxCell id="M7Nvs6vjRSlFN7uA4aVM-15" value="" style="html=1;points=[];perimeter=orthogonalPerimeter;fontSize=8;" vertex="1" parent="M7Nvs6vjRSlFN7uA4aVM-1">
          <mxGeometry x="45" y="68" width="10" height="52" as="geometry" />
        </mxCell>
        <mxCell id="M7Nvs6vjRSlFN7uA4aVM-2" value="Record Update GProcesser" style="shape=umlLifeline;perimeter=lifelinePerimeter;whiteSpace=wrap;html=1;container=1;collapsible=0;recursiveResize=0;outlineConnect=0;" vertex="1" parent="1">
          <mxGeometry x="420" y="80" width="100" height="300" as="geometry" />
        </mxCell>
        <mxCell id="M7Nvs6vjRSlFN7uA4aVM-3" value="Polling Data Source" style="shape=umlLifeline;perimeter=lifelinePerimeter;whiteSpace=wrap;html=1;container=1;collapsible=0;recursiveResize=0;outlineConnect=0;" vertex="1" parent="1">
          <mxGeometry x="280" y="80" width="100" height="300" as="geometry" />
        </mxCell>
        <mxCell id="M7Nvs6vjRSlFN7uA4aVM-8" value="" style="html=1;points=[];perimeter=orthogonalPerimeter;" vertex="1" parent="M7Nvs6vjRSlFN7uA4aVM-3">
          <mxGeometry x="45" y="68" width="10" height="162" as="geometry" />
        </mxCell>
        <mxCell id="M7Nvs6vjRSlFN7uA4aVM-4" value="Record List GProcsser" style="shape=umlLifeline;perimeter=lifelinePerimeter;whiteSpace=wrap;html=1;container=1;collapsible=0;recursiveResize=0;outlineConnect=0;" vertex="1" parent="1">
          <mxGeometry x="560" y="80" width="100" height="300" as="geometry" />
        </mxCell>
        <mxCell id="M7Nvs6vjRSlFN7uA4aVM-5" value="Bank System" style="shape=umlLifeline;perimeter=lifelinePerimeter;whiteSpace=wrap;html=1;container=1;collapsible=0;recursiveResize=0;outlineConnect=0;" vertex="1" parent="1">
          <mxGeometry x="980" y="80" width="100" height="300" as="geometry" />
        </mxCell>
        <mxCell id="M7Nvs6vjRSlFN7uA4aVM-6" value="Rest Destination" style="shape=umlLifeline;perimeter=lifelinePerimeter;whiteSpace=wrap;html=1;container=1;collapsible=0;recursiveResize=0;outlineConnect=0;" vertex="1" parent="1">
          <mxGeometry x="700" y="80" width="100" height="300" as="geometry" />
        </mxCell>
        <mxCell id="M7Nvs6vjRSlFN7uA4aVM-7" value="JDBC Destination" style="shape=umlLifeline;perimeter=lifelinePerimeter;whiteSpace=wrap;html=1;container=1;collapsible=0;recursiveResize=0;outlineConnect=0;" vertex="1" parent="1">
          <mxGeometry x="850" y="80" width="100" height="300" as="geometry" />
        </mxCell>
        <mxCell id="M7Nvs6vjRSlFN7uA4aVM-9" value="" style="html=1;verticalAlign=bottom;startArrow=oval;endArrow=block;startSize=8;rounded=0;edgeStyle=orthogonalEdgeStyle;exitX=-0.006;exitY=0.015;exitDx=0;exitDy=0;exitPerimeter=0;entryX=0.92;entryY=0.029;entryDx=0;entryDy=0;entryPerimeter=0;" edge="1" target="M7Nvs6vjRSlFN7uA4aVM-15" parent="1" source="M7Nvs6vjRSlFN7uA4aVM-8">
          <mxGeometry x="-0.0315" y="-10" relative="1" as="geometry">
            <mxPoint x="265" y="150" as="sourcePoint" />
            <Array as="points" />
            <mxPoint as="offset" />
          </mxGeometry>
        </mxCell>
        <mxCell id="M7Nvs6vjRSlFN7uA4aVM-12" value="poll and select * of max 100" style="text;align=center;fontStyle=0;verticalAlign=middle;spacingLeft=3;spacingRight=3;strokeColor=none;rotatable=0;points=[[0,0.5],[1,0.5]];portConstraint=eastwest;fontSize=8;" vertex="1" parent="1">
          <mxGeometry x="210" y="130" width="110" height="26" as="geometry" />
        </mxCell>
        <mxCell id="M7Nvs6vjRSlFN7uA4aVM-14" value="" style="html=1;verticalAlign=bottom;startArrow=none;startFill=0;endArrow=block;startSize=8;rounded=0;fontSize=8;edgeStyle=orthogonalEdgeStyle;exitX=1.057;exitY=0.949;exitDx=0;exitDy=0;exitPerimeter=0;entryX=0.04;entryY=0.302;entryDx=0;entryDy=0;entryPerimeter=0;" edge="1" parent="1" source="M7Nvs6vjRSlFN7uA4aVM-15" target="M7Nvs6vjRSlFN7uA4aVM-8">
          <mxGeometry width="60" relative="1" as="geometry">
            <mxPoint x="190" y="200" as="sourcePoint" />
            <mxPoint x="250" y="200" as="targetPoint" />
          </mxGeometry>
        </mxCell>
        <mxCell id="M7Nvs6vjRSlFN7uA4aVM-18" value="frame" style="shape=umlFrame;whiteSpace=wrap;html=1;fontSize=8;" vertex="1" parent="1">
          <mxGeometry x="290" y="540" width="360" height="70" as="geometry" />
        </mxCell>
        <mxCell id="M7Nvs6vjRSlFN7uA4aVM-20" value="Connection IssueÂ " style="text;align=center;fontStyle=0;verticalAlign=middle;spacingLeft=3;spacingRight=3;strokeColor=none;rotatable=0;points=[[0,0.5],[1,0.5]];portConstraint=eastwest;fontSize=8;" vertex="1" parent="1">
          <mxGeometry x="210" y="192" width="110" height="26" as="geometry" />
        </mxCell>
      </root>
    </mxGraphModel>
  </diagram>
</mxfile>
